<svg width="15" height="15" viewBox="0 0 15 15" fill="none" xmlns="http://www.w3.org/2000/svg">
<path d="M13.1875 5.54687L7.9375 10.8125C7.875 10.875 7.80729 10.9194 7.73438 10.9456C7.66146 10.9719 7.58333 10.9848 7.5 10.9844C7.41667 10.9844 7.33854 10.9714 7.26562 10.9456C7.19271 10.9198 7.125 10.8754 7.0625 10.8125L1.79687 5.54687C1.65104 5.40103 1.57813 5.21874 1.57813 4.99999C1.57813 4.78124 1.65625 4.59374 1.8125 4.43749C1.96875 4.28124 2.15104 4.20312 2.35938 4.20312C2.56771 4.20312 2.75 4.28124 2.90625 4.43749L7.5 9.03124L12.0938 4.43749C12.2396 4.29166 12.4194 4.21874 12.6331 4.21874C12.8469 4.21874 13.0317 4.29687 13.1875 4.45312C13.3438 4.60937 13.4219 4.79166 13.4219 4.99999C13.4219 5.20832 13.3438 5.39062 13.1875 5.54687Z" fill="white"/>
</svg>
