<svg width="12" height="12" viewBox="0 0 12 12" fill="none" xmlns="http://www.w3.org/2000/svg">
<path d="M0.345595 10.3456C-0.0158222 10.707 -0.0158222 11.293 0.345595 11.6544C0.707013 12.0158 1.29299 12.0158 1.6544 11.6544L0.345595 10.3456ZM11.9255 0.999999C11.9255 0.488878 11.5111 0.0745316 11 0.0745316L2.67079 0.0745319C2.15967 0.0745313 1.74532 0.488878 1.74532 0.999999C1.74532 1.51112 2.15967 1.92547 2.67079 1.92547H10.0745V9.32921C10.0745 9.84033 10.4889 10.2547 11 10.2547C11.5111 10.2547 11.9255 9.84033 11.9255 9.32921L11.9255 0.999999ZM1.6544 11.6544L11.6544 1.6544L10.3456 0.345595L0.345595 10.3456L1.6544 11.6544Z" fill="#1B1B1B"/>
</svg>
