<svg width="73" height="73" viewBox="0 0 73 73" fill="none" xmlns="http://www.w3.org/2000/svg">
<path d="M12.1368 3.42188C7.32652 3.42188 3.4222 7.32617 3.4222 12.1365V60.8629C3.4222 65.6733 7.32652 69.5776 12.1368 69.5776H60.8548C65.6652 69.5776 69.5779 65.6733 69.5779 60.8629V12.1365C69.5779 7.32617 65.6652 3.42188 60.8548 3.42188H12.1368Z" fill="#50B86B"/>
<path d="M50.6244 17.6602C49.9515 17.6602 49.2709 17.9276 48.7636 18.4348L30.7448 36.4619L24.2278 29.9449C23.2154 28.9325 21.5353 28.9325 20.523 29.9449L14.2417 36.2178C13.2294 37.2301 13.2294 38.9102 14.2417 39.9226L22.6196 48.292L28.8924 54.5733C29.6504 55.3314 30.7813 55.5323 31.73 55.1459C32.0459 55.0173 32.3429 54.8272 32.5972 54.5733L38.8701 48.292L58.7496 28.4125C59.762 27.4002 59.762 25.72 58.7496 24.7077L52.4767 18.4348C51.9722 17.9303 51.2974 17.6602 50.6244 17.6602Z" fill="#E2F0FA"/>
</svg>
