<svg width="38" height="24" viewBox="0 0 38 24" fill="none" xmlns="http://www.w3.org/2000/svg">
<path d="M7.77939 4.68717C13.9764 -1.56239 24.0237 -1.56239 30.2207 4.68717L30.9665 5.43932C31.2763 5.7518 31.2763 6.25842 30.9665 6.5709L28.4152 9.14384C28.2603 9.30008 28.0091 9.30008 27.8541 9.14384L26.8278 8.1088C22.5046 3.74895 15.4954 3.74895 11.1722 8.1088L10.0731 9.21724C9.91819 9.37348 9.667 9.37348 9.51208 9.21724L6.96079 6.64431C6.65094 6.33183 6.65094 5.8252 6.96079 5.51272L7.77939 4.68717ZM35.497 10.0083L37.7676 12.2982C38.0775 12.6107 38.0775 13.1173 37.7676 13.4298L27.5291 23.7554C27.2192 24.0678 26.7169 24.0678 26.407 23.7554C26.407 23.7554 26.407 23.7554 26.407 23.7554L19.1403 16.427C19.0629 16.3489 18.9373 16.3489 18.8598 16.427H18.8598L11.5933 23.7554C11.2834 24.0678 10.7811 24.0679 10.4712 23.7554C10.4712 23.7554 10.4712 23.7554 10.4712 23.7554L0.232387 13.4297C-0.0774623 13.1172 -0.0774623 12.6106 0.232387 12.2981L2.50305 10.0082C2.81289 9.69567 3.31526 9.69567 3.62511 10.0082L10.8919 17.3366C10.9694 17.4147 11.095 17.4147 11.1724 17.3366C11.1724 17.3366 11.1724 17.3366 11.1724 17.3366L18.4389 10.0082C18.7487 9.69567 19.2511 9.69565 19.5609 10.0081C19.5609 10.0081 19.5609 10.0081 19.5609 10.0081L26.8277 17.3366C26.9052 17.4147 27.0308 17.4147 27.1082 17.3366L34.3749 10.0083C34.6847 9.69581 35.1871 9.69581 35.497 10.0083Z" fill="#3B99FC"/>
</svg>
