<svg width="24" height="24" viewBox="0 0 24 24" fill="none" xmlns="http://www.w3.org/2000/svg">
<path fill-rule="evenodd" clip-rule="evenodd" d="M22.0567 3.05669C22.4961 3.49614 22.4961 4.20864 22.0567 4.64809L14.148 12.5567L22.0567 20.4654C22.4961 20.9048 22.4961 21.6173 22.0567 22.0568C21.6172 22.4962 20.9047 22.4962 20.4653 22.0568L12.5566 14.1481L4.64799 22.0568C4.20854 22.4962 3.49605 22.4962 3.05659 22.0568C2.61714 21.6173 2.61714 20.9048 3.05659 20.4654L10.9652 12.5567L3.05659 4.64809C2.61714 4.20864 2.61714 3.49614 3.05659 3.05669C3.49605 2.61723 4.20854 2.61723 4.64799 3.05669L12.5566 10.9653L20.4653 3.05669C20.9047 2.61724 21.6172 2.61724 22.0567 3.05669Z" fill="white"/>
</svg>
