<svg width="24" height="24" viewBox="0 0 24 24" fill="none" xmlns="http://www.w3.org/2000/svg">
<mask id="mask0_102_1807" style="mask-type:alpha" maskUnits="userSpaceOnUse" x="0" y="0" width="24" height="24">
<rect width="24" height="24" fill="#D9D9D9"/>
</mask>
<g mask="url(#mask0_102_1807)">
</g>
<g clip-path="url(#clip0_102_1807)">
<path d="M9.32287 2H3.38537C2.62144 2 2 2.65414 2 3.45828V7.20828C2 8.01257 2.62144 8.66672 3.38537 8.66672H9.32287C10.0869 8.66672 10.7084 8.01257 10.7084 7.20828V3.45828C10.7084 2.65414 10.0869 2 9.32287 2Z" fill="#FFEBD7"/>
<path d="M9.32287 10.333H3.38537C2.62144 10.333 2 10.9872 2 11.7914V20.5414C2 21.3456 2.62144 21.9997 3.38537 21.9997H9.32287C10.0869 21.9997 10.7084 21.3456 10.7084 20.5414V11.7914C10.7084 10.9872 10.0869 10.333 9.32287 10.333Z" fill="#FFEBD7"/>
<path d="M19.6145 15.333H13.677C12.9129 15.333 12.2915 15.9872 12.2915 16.7914V20.5414C12.2915 21.3456 12.9129 21.9997 13.677 21.9997H19.6145C20.3784 21.9997 20.9999 21.3456 20.9999 20.5414V16.7914C20.9999 15.9872 20.3784 15.333 19.6145 15.333Z" fill="#FFEBD7"/>
<path d="M19.6145 2H13.677C12.9129 2 12.2915 2.65414 12.2915 3.45828V12.2083C12.2915 13.0126 12.9129 13.6667 13.677 13.6667H19.6145C20.3784 13.6667 20.9999 13.0126 20.9999 12.2083V3.45828C20.9999 2.65414 20.3784 2 19.6145 2Z" fill="#FFEBD7"/>
</g>
<defs>
<clipPath id="clip0_102_1807">
<rect width="19" height="20" fill="white" transform="translate(2 2)"/>
</clipPath>
</defs>
</svg>
