<svg width="24" height="24" viewBox="0 0 24 24" fill="none" xmlns="http://www.w3.org/2000/svg">
<g clip-path="url(#clip0_43_9767)">
<path d="M19.091 17H10.097C8.8 17 7.65 16.149 7.299 14.93L4.259 4.629C4.151 4.256 3.792 4 3.382 4H1C0.447 4 0 3.552 0 3C0 2.448 0.447 2 1 2H3.382C4.679 2 5.828 2.851 6.179 4.07L6.748 6H22.043C22.667 6 23.259 6.297 23.626 6.795C23.99 7.289 24.095 7.907 23.914 8.491L21.851 15.039C21.447 16.221 20.34 17 19.091 17Z" fill="#FFEBD7"/>
<path d="M11 22C9.897 22 9 21.103 9 20C9 18.897 9.897 18 11 18C12.103 18 13 18.897 13 20C13 21.103 12.103 22 11 22Z" fill="#FFEBD7"/>
<path d="M18 22C16.897 22 16 21.103 16 20C16 18.897 16.897 18 18 18C19.103 18 20 18.897 20 20C20 21.103 19.103 22 18 22Z" fill="#FFEBD7"/>
</g>
<defs>
<clipPath id="clip0_43_9767">
<rect width="24" height="24" fill="white"/>
</clipPath>
</defs>
</svg>
