<svg width="24" height="24" viewBox="0 0 24 24" fill="none" xmlns="http://www.w3.org/2000/svg">
<mask id="mask0_102_1803" style="mask-type:alpha" maskUnits="userSpaceOnUse" x="0" y="0" width="24" height="24">
<rect width="24" height="24" fill="#D9D9D9"/>
</mask>
<g mask="url(#mask0_102_1803)">
<path d="M10.2917 1.16699C11.7903 1.16699 13.1986 1.45155 14.5167 2.02066C15.8347 2.58977 16.9813 3.36146 17.9563 4.33574C18.9313 5.31074 19.7033 6.45727 20.2724 7.77533C20.8415 9.09338 21.1257 10.5017 21.125 12.0003C21.125 13.4989 20.8404 14.9073 20.2713 16.2253C19.7022 17.5434 18.9305 18.6899 17.9563 19.6649C16.9813 20.6399 15.8347 21.412 14.5167 21.9811C13.1986 22.5502 11.7903 22.8344 10.2917 22.8337C9.33472 22.8337 8.40017 22.7116 7.488 22.4675C6.57583 22.2234 5.70483 21.8579 4.875 21.3712C6.55417 20.3962 7.87692 19.0781 8.84325 17.417C9.80958 15.7559 10.2924 13.9503 10.2917 12.0003C10.2917 10.0503 9.8085 8.24477 8.84217 6.58366C7.87583 4.92255 6.55344 3.60449 4.875 2.62949C5.70556 2.14199 6.57692 1.77655 7.48908 1.53316C8.40125 1.28977 9.33544 1.16771 10.2917 1.16699Z" fill="black"/>
</g>
</svg>
