<svg width="24" height="24" viewBox="0 0 24 24" fill="none" xmlns="http://www.w3.org/2000/svg">
<mask id="mask0_102_1805" style="mask-type:alpha" maskUnits="userSpaceOnUse" x="0" y="0" width="24" height="24">
<rect width="24" height="24" fill="#D9D9D9"/>
</mask>
<g mask="url(#mask0_102_1805)">
</g>
<g clip-path="url(#clip0_102_1805)">
<path d="M6.94229 14.052C6.65197 13.7618 6.54264 13.9076 6.47806 13.9722C4.80624 15.644 3.32204 19.6779 4.10667 19.2839C6.96307 17.8497 7.43901 18.2767 9.11077 16.605C9.1754 16.5404 9.32402 16.4338 9.02524 16.135L6.94229 14.052Z" fill="#FFEBD7"/>
<path d="M15.9548 14.0292C15.8791 13.788 16.0378 13.6719 16.1046 13.5998C19.7944 9.6161 22.1395 4.3086 20.4017 2.57067C18.673 0.842099 13.5292 3.25568 9.54663 6.91893C9.46784 6.9915 9.31254 7.12892 9.03473 7.07091L7.79391 6.77545C7.4494 6.69352 6.96262 6.83123 6.71221 7.08165L2.15927 11.6345C1.90886 11.885 1.99021 12.1349 2.34008 12.1898L5.63308 12.7073C5.98295 12.7624 6.47407 12.6024 6.72443 12.352C6.72443 12.352 6.89434 12.1816 7.06505 12.3523C8.00687 13.294 9.75702 15.0441 10.6543 15.9415C10.8327 16.1198 10.6618 16.2894 10.6618 16.2894C10.4114 16.5399 10.2515 17.0309 10.3065 17.3808L10.824 20.6737C10.879 21.0237 11.1289 21.1051 11.3793 20.8546L15.9323 16.3016C16.1826 16.0512 16.3204 15.5645 16.2384 15.22L15.9548 14.0292ZM14.9355 8.14707C14.1643 7.37591 14.1643 6.12573 14.9355 5.35467C15.7066 4.58351 16.9568 4.58351 17.728 5.35467C18.499 6.12567 18.499 7.37591 17.728 8.14702C16.9568 8.91818 15.7065 8.91818 14.9355 8.14707Z" fill="#FFEBD7"/>
</g>
<defs>
<clipPath id="clip0_102_1805">
<rect width="19" height="19" fill="white" transform="translate(2 2)"/>
</clipPath>
</defs>
</svg>
