<svg width="24" height="24" viewBox="0 0 24 24" fill="none" xmlns="http://www.w3.org/2000/svg">
<path d="M23 12.0003C23 11.8145 22.9484 11.6323 22.8507 11.4742C22.753 11.3162 22.6132 11.1884 22.447 11.1053L19.236 9.50035L22.447 7.90035C22.6134 7.81741 22.7534 7.68972 22.8512 7.53163C22.9491 7.37353 23.0009 7.19128 23.0009 7.00535C23.0009 6.81942 22.9491 6.63717 22.8512 6.47907C22.7534 6.32097 22.6134 6.19329 22.447 6.11035L12.447 1.11035C12.3082 1.04099 12.1551 1.00488 12 1.00488C11.8448 1.00488 11.6918 1.04099 11.553 1.11035L1.55296 6.11035C1.38655 6.19329 1.24656 6.32097 1.14871 6.47907C1.05086 6.63717 0.999023 6.81942 0.999023 7.00535C0.999023 7.19128 1.05086 7.37353 1.14871 7.53163C1.24656 7.68972 1.38655 7.81741 1.55296 7.90035L4.76396 9.50035L1.55296 11.1053C1.38655 11.1883 1.24656 11.316 1.14871 11.4741C1.05086 11.6322 0.999023 11.8144 0.999023 12.0003C0.999023 12.1863 1.05086 12.3685 1.14871 12.5266C1.24656 12.6847 1.38655 12.8124 1.55296 12.8953L4.76396 14.5003L1.55296 16.1053C1.38655 16.1883 1.24656 16.316 1.14871 16.4741C1.05086 16.6322 0.999023 16.8144 0.999023 17.0003C0.999023 17.1863 1.05086 17.3685 1.14871 17.5266C1.24656 17.6847 1.38655 17.8124 1.55296 17.8953L11.553 22.8953C11.6918 22.9647 11.8448 23.0008 12 23.0008C12.1551 23.0008 12.3082 22.9647 12.447 22.8953L22.447 17.8953C22.6134 17.8124 22.7534 17.6847 22.8512 17.5266C22.9491 17.3685 23.0009 17.1863 23.0009 17.0003C23.0009 16.8144 22.9491 16.6322 22.8512 16.4741C22.7534 16.316 22.6134 16.1883 22.447 16.1053L19.236 14.5003L22.447 12.9003C22.614 12.8169 22.7543 12.6884 22.852 12.5293C22.9497 12.3703 23.001 12.187 23 12.0003ZM19.764 17.0003L12 20.8823L4.23596 17.0003L6.99996 15.6183L11.553 17.9003C11.6918 17.9697 11.8448 18.0058 12 18.0058C12.1551 18.0058 12.3082 17.9697 12.447 17.9003L17 15.6183L19.764 17.0003ZM12 15.8823L4.23596 12.0003L6.99996 10.6183L11.553 12.9003C11.6918 12.9697 11.8448 13.0058 12 13.0058C12.1551 13.0058 12.3082 12.9697 12.447 12.9003L17 10.6183L19.764 12.0003L12 15.8823Z" fill="#FFEBD7"/>
</svg>
