<svg width="24" height="24" viewBox="0 0 24 24" fill="none" xmlns="http://www.w3.org/2000/svg">
<g clip-path="url(#clip0_43_9788)">
<path d="M12 3.66562C12.3883 3.66562 12.7031 3.35081 12.7031 2.9625V0.703125C12.7031 0.314812 12.3883 0 12 0C11.6117 0 11.2969 0.314812 11.2969 0.703125V2.9625C11.2969 3.35081 11.6117 3.66562 12 3.66562Z" fill="#FFEBD7"/>
<path d="M5.11238 6.10654C5.38697 6.38113 5.83214 6.38113 6.10674 6.10654C6.38133 5.83195 6.38133 5.38677 6.10674 5.11218L4.50914 3.51454C4.23455 3.23995 3.78938 3.23995 3.51478 3.51454C3.24019 3.78913 3.24019 4.2343 3.51478 4.5089L5.11238 6.10654Z" fill="#FFEBD7"/>
<path d="M5.11213 17.8935L3.51454 19.4911C3.23995 19.7657 3.23995 20.2108 3.51454 20.4854C3.78913 20.76 4.2343 20.76 4.5089 20.4854L6.10654 18.8878C6.38113 18.6132 6.38113 18.168 6.10654 17.8934C5.83195 17.6188 5.38673 17.6189 5.11213 17.8935Z" fill="#FFEBD7"/>
<path d="M12 20.334C11.6117 20.334 11.2969 20.6488 11.2969 21.0371V23.2965C11.2969 23.6848 11.6117 23.9996 12 23.9996C12.3883 23.9996 12.7031 23.6848 12.7031 23.2965V21.0371C12.7031 20.6488 12.3883 20.334 12 20.334Z" fill="#FFEBD7"/>
<path d="M3.66562 12C3.66562 11.6117 3.35081 11.2969 2.9625 11.2969H0.703125C0.314812 11.2969 0 11.6117 0 12C0 12.3883 0.314812 12.7031 0.703125 12.7031H2.9625C3.35081 12.7031 3.66562 12.3883 3.66562 12Z" fill="#FFEBD7"/>
<path d="M11.9999 6.02539C8.70531 6.02539 6.0249 8.7058 6.0249 12.0004C6.0249 15.295 8.70531 17.9754 11.9999 17.9754C15.2945 17.9754 17.9749 15.295 17.9749 12.0004C17.9749 8.7058 15.2945 6.02539 11.9999 6.02539Z" fill="#FFEBD7"/>
<path d="M18.8878 6.10654L20.4854 4.5089C20.76 4.2343 20.76 3.78913 20.4854 3.51454C20.2109 3.23995 19.7657 3.23995 19.4911 3.51454L17.8934 5.11218C17.6189 5.38677 17.6189 5.83195 17.8934 6.10654C18.168 6.38113 18.6132 6.38113 18.8878 6.10654Z" fill="#FFEBD7"/>
<path d="M18.8876 17.8934C18.613 17.6189 18.1678 17.6189 17.8932 17.8934C17.6186 18.168 17.6186 18.6132 17.8932 18.8878L19.4908 20.4854C19.7654 20.76 20.2106 20.76 20.4852 20.4854C20.7598 20.2109 20.7598 19.7657 20.4852 19.4911L18.8876 17.8934Z" fill="#FFEBD7"/>
<path d="M23.297 11.2969H21.0376C20.6493 11.2969 20.3345 11.6117 20.3345 12C20.3345 12.3883 20.6493 12.7031 21.0376 12.7031H23.297C23.6853 12.7031 24.0001 12.3883 24.0001 12C24.0001 11.6117 23.6853 11.2969 23.297 11.2969Z" fill="#FFEBD7"/>
</g>
<defs>
<clipPath id="clip0_43_9788">
<rect width="24" height="24" fill="white"/>
</clipPath>
</defs>
</svg>
