<svg width="25" height="25" viewBox="0 0 25 25" fill="none" xmlns="http://www.w3.org/2000/svg">
<path d="M3.97654 6.25C4.17576 4.83203 4.82419 4.29688 6.17966 4.29688H18.3945C18.5956 4.30593 18.7854 4.39222 18.9243 4.53776C19.0633 4.68331 19.1408 4.87687 19.1406 5.07812V6.25H3.97654ZM20.7031 6.28516V5.07812C20.7032 4.46257 20.4611 3.87169 20.0291 3.43315C19.5971 2.99461 19.01 2.74361 18.3945 2.73438H6.17966C2.78123 2.73438 2.39451 5.50391 2.34373 6.94141C2.34197 6.95568 2.34197 6.97011 2.34373 6.98437V7.03125V19.5312C2.34373 20.1529 2.59066 20.749 3.03019 21.1885C3.46973 21.6281 4.06587 21.875 4.68747 21.875H20.3125C20.9341 21.875 21.5302 21.6281 21.9698 21.1885C22.4093 20.749 22.6562 20.1529 22.6562 19.5312V8.59375C22.6557 8.04028 22.4593 7.50487 22.1018 7.08233C21.7443 6.6598 21.2488 6.3774 20.7031 6.28516ZM18.164 16.0156C17.8164 16.0156 17.4765 15.9125 17.1874 15.7194C16.8984 15.5262 16.6731 15.2517 16.54 14.9305C16.407 14.6093 16.3722 14.2559 16.44 13.9149C16.5078 13.5739 16.6752 13.2607 16.9211 13.0149C17.1669 12.769 17.4801 12.6016 17.8211 12.5338C18.1621 12.466 18.5155 12.5008 18.8367 12.6338C19.1579 12.7668 19.4325 12.9922 19.6256 13.2812C19.8188 13.5703 19.9219 13.9101 19.9219 14.2578C19.9224 14.4888 19.8772 14.7176 19.7891 14.9311C19.7009 15.1446 19.5715 15.3386 19.4081 15.5019C19.2448 15.6653 19.0508 15.7947 18.8373 15.8829C18.6238 15.971 18.395 16.0161 18.164 16.0156Z" fill="white"/>
</svg>
